<svg xmlns="http://www.w3.org/2000/svg" width="1200" height="675" viewBox="0 0 1200 675"><defs><linearGradient id="bg" x1="0" y1="0" x2="1" y2="1"><stop stop-color="#1d4ed8"/><stop offset="1" stop-color="#60a5fa"/></linearGradient><radialGradient id="glow"><stop stop-color="#fff" stop-opacity=".28"/><stop offset="1" stop-color="#fff" stop-opacity="0"/></radialGradient><pattern id="grid" width="42" height="42" patternUnits="userSpaceOnUse"><path d="M42 0H0v42" fill="none" stroke="#fff" stroke-opacity=".08"/></pattern></defs><rect width="1200" height="675" rx="36" fill="url(#bg)"/><rect width="1200" height="675" rx="36" fill="url(#grid)"/><circle cx="920" cy="330" r="330" fill="url(#glow)"/><text x="72" y="130" fill="#fff" opacity=".72" font-family="Arial,sans-serif" font-size="46" font-weight="700">CHAPTER 04</text><text x="72" y="280" fill="#fff" font-family="Microsoft YaHei,Noto Sans SC,sans-serif" font-size="58" font-weight="700">恒定磁场与电感</text><text x="76" y="350" fill="#fff" opacity=".78" font-family="Arial,Microsoft YaHei,sans-serif" font-size="28" letter-spacing="3">MAGNETIC FIELD</text><path d="M75 405h420" stroke="#fff" stroke-opacity=".55" stroke-width="4"/><g fill="none" stroke="#fff" stroke-opacity=".9" stroke-width="12" stroke-linecap="round" stroke-linejoin="round"><path d="M690 335h70c0-90 90-90 90 0s90 90 90 0 90-90 90 0h60"/><path d="M760 210c90-70 210-70 300 0M760 460c90 70 210 70 300 0"/></g><circle cx="90" cy="590" r="8" fill="#fff"/><path d="M115 590h310" stroke="#fff" stroke-opacity=".45" stroke-width="4"/></svg>