<svg xmlns="http://www.w3.org/2000/svg" width="1200" height="675" viewBox="0 0 1200 675"><defs><linearGradient id="bg" x1="0" y1="0" x2="1" y2="1"><stop stop-color="#5b3cc4"/><stop offset="1" stop-color="#8f7cff"/></linearGradient><radialGradient id="glow"><stop stop-color="#fff" stop-opacity=".28"/><stop offset="1" stop-color="#fff" stop-opacity="0"/></radialGradient><pattern id="grid" width="42" height="42" patternUnits="userSpaceOnUse"><path d="M42 0H0v42" fill="none" stroke="#fff" stroke-opacity=".08"/></pattern></defs><rect width="1200" height="675" rx="36" fill="url(#bg)"/><rect width="1200" height="675" rx="36" fill="url(#grid)"/><circle cx="920" cy="330" r="330" fill="url(#glow)"/><text x="72" y="130" fill="#fff" opacity=".72" font-family="Arial,sans-serif" font-size="46" font-weight="700">CHAPTER 01</text><text x="72" y="280" fill="#fff" font-family="Microsoft YaHei,Noto Sans SC,sans-serif" font-size="58" font-weight="700">微波工程</text><text x="76" y="350" fill="#fff" opacity=".78" font-family="Arial,Microsoft YaHei,sans-serif" font-size="28" letter-spacing="3">学习框架</text><path d="M75 405h420" stroke="#fff" stroke-opacity=".55" stroke-width="4"/><g fill="none" stroke="#fff" stroke-opacity=".9" stroke-width="12" stroke-linecap="round" stroke-linejoin="round"><circle cx="740" cy="230" r="34"/><circle cx="940" cy="210" r="34"/><circle cx="1030" cy="380" r="34"/><circle cx="810" cy="450" r="34"/><path d="m770 230 136-17m53 27 56 108m-18 55-153 38m-25-30-60-148m38 10 117 91"/></g><circle cx="90" cy="590" r="8" fill="#fff"/><path d="M115 590h310" stroke="#fff" stroke-opacity=".45" stroke-width="4"/></svg>